<?xml version="1.0" encoding="UTF-8" standalone="no"?>
<!-- Created with Inkscape (http://www.inkscape.org/) -->

<svg
   width="36px"
   height="36px"
   viewBox="0 0 25.04641 25"
   version="1.1"
   id="svg3154"
   inkscape:version="1.1.1 (c3084ef, 2021-09-22)"
   sodipodi:docname="logo.svg"
   xmlns:inkscape="http://www.inkscape.org/namespaces/inkscape"
   xmlns:sodipodi="http://sodipodi.sourceforge.net/DTD/sodipodi-0.dtd"
   xmlns="http://www.w3.org/2000/svg"
   xmlns:svg="http://www.w3.org/2000/svg"
   xmlns:rdf="http://www.w3.org/1999/02/22-rdf-syntax-ns#"
   xmlns:cc="http://creativecommons.org/ns#"
   xmlns:dc="http://purl.org/dc/elements/1.1/">
  <defs
     id="defs3148">
    <filter
       inkscape:collect="always"
       style="color-interpolation-filters:sRGB"
       id="filter7527"
       x="-0.024000001"
       width="1.048"
       y="-0.024000001"
       height="1.048">
      <feGaussianBlur
         inkscape:collect="always"
         stdDeviation="0.2269483"
         id="feGaussianBlur7529" />
    </filter>
  </defs>
  <sodipodi:namedview
     id="base"
     pagecolor="#ffffff"
     bordercolor="#666666"
     borderopacity="1.0"
     inkscape:pageopacity="0.0"
     inkscape:pageshadow="2"
     inkscape:zoom="14.276023"
     inkscape:cx="25.357203"
     inkscape:cy="18.142308"
     inkscape:document-units="mm"
     inkscape:current-layer="g10805"
     showgrid="false"
     inkscape:window-width="1920"
     inkscape:window-height="950"
     inkscape:window-x="0"
     inkscape:window-y="25"
     inkscape:window-maximized="1"
     showguides="true"
     inkscape:measure-start="0,0"
     inkscape:measure-end="0,0"
     fit-margin-top="0"
     fit-margin-left="0"
     fit-margin-right="0"
     fit-margin-bottom="0"
     inkscape:pagecheckerboard="0" />
  <metadata
     id="metadata3151">
    <rdf:RDF>
      <cc:Work
         rdf:about="">
        <dc:format>image/svg+xml</dc:format>
        <dc:type
           rdf:resource="http://purl.org/dc/dcmitype/StillImage" />
      </cc:Work>
    </rdf:RDF>
  </metadata>
  <g
     inkscape:label="Layer 1"
     inkscape:groupmode="layer"
     id="layer1"
     transform="translate(-49.030439,-59.947961)">
    <g
       transform="matrix(0.90816015,0,0,0.90647735,26.581432,203.76628)"
       id="g5268"
       style="stroke-width:1.10214913">
      <g
         id="g935"
         transform="matrix(1.1595643,0,0,1.1595643,-41.301386,12.226922)"
         inkscape:export-xdpi="500.01514"
         inkscape:export-ydpi="500.01514">
        <rect
           inkscape:export-ydpi="400.30386"
           inkscape:export-xdpi="400.30386"
           ry="2.2063429"
           rx="2.202255"
           y="-146.82378"
           x="57.480373"
           height="22.69483"
           width="22.69483"
           id="rect1096"
           style="opacity:1;fill:#000000;fill-opacity:0.19607843;stroke:none;stroke-width:0.77150416;stroke-miterlimit:4;stroke-dasharray:none;stroke-opacity:1;filter:url(#filter7527)" />
        <rect
           inkscape:export-ydpi="400.30386"
           inkscape:export-xdpi="400.30386"
           style="opacity:1;fill:#374150;fill-opacity:1;stroke:none;stroke-width:0.77150416;stroke-miterlimit:4;stroke-dasharray:none;stroke-opacity:1"
           id="rect1098"
           width="22.69483"
           height="22.69483"
           x="58.009548"
           y="-147.35292"
           rx="2.202255"
           ry="2.2063429" />
        <path
           inkscape:export-ydpi="400.30386"
           inkscape:export-xdpi="400.30386"
           style="fill:#ffffff;fill-opacity:0.94117647;stroke-width:1.10214925"
           d="m 59.871822,-129.28244 v -2.36911 h 9.64192 9.64193 v 2.36911 2.36909 h -9.64193 -9.64192 z m 17.97582,0.82948 c 0.58157,-0.59951 0.0657,-2.14565 -0.71596,-2.14565 -0.51138,0 -1.11525,0.65387 -1.11525,1.20762 0,1.17527 1.06958,1.72316 1.83121,0.93803 z m -5.56838,-0.82948 v -0.78971 h -5.53104 -5.53102 v 0.78971 0.78969 h 5.53102 5.53104 z m -12.40744,-6.4931 v -2.3691 h 9.64192 9.64193 v 2.3691 2.3691 h -9.64193 -9.64192 z m 17.84356,0.95246 c 0.28567,-0.26381 0.39387,-0.52546 0.39387,-0.95246 0,-0.64426 -0.54795,-1.31617 -1.07336,-1.31617 -0.4118,0 -1.01946,0.78452 -1.01946,1.31617 0,0.53166 0.60766,1.31616 1.01946,1.31616 0.15708,0 0.46285,-0.16367 0.67949,-0.3637 z m -5.43612,-0.95246 v -0.7897 h -5.53104 -5.53102 v 0.7897 0.7897 h 5.53102 5.53104 z m -12.40744,-6.4931 v -2.36909 h 9.64192 9.64193 v 2.36909 2.36911 h -9.64193 -9.64192 z m 17.89144,0.9346 c 0.89238,-0.98414 -0.06,-2.64857 -1.14023,-1.99278 -0.72783,0.44184 -0.83318,1.43769 -0.21272,2.01064 0.50498,0.46631 0.91891,0.46085 1.35295,-0.0179 z m -5.484,-0.84685 v -0.87744 h -5.53104 -5.53102 v 0.87744 0.87745 h 5.53102 5.53104 z"
           id="path1100"
           inkscape:connector-curvature="0" />
        <g
           id="g10805"
           transform="translate(-51.113797,69.399176)">
          <path
             style="fill:#e7c41d;stroke-width:1.10215"
             d="m 113.788,-197.36309 v -3.306 l 0.22544,-4e-5 0.22543,-3e-5 0.003,-0.21371 c 0.002,-0.1846 0.0232,-0.23863 0.15332,-0.39669 0.0828,-0.10064 0.17862,-0.18306 0.2129,-0.18314 0.0352,-9e-5 0.007,-0.0382 -0.0651,-0.0875 -0.0701,-0.048 -0.12742,-0.10373 -0.12742,-0.12376 0,-0.02 -0.0397,-0.0843 -0.0882,-0.14293 -0.10347,-0.12494 -0.1188,-0.46449 -0.0267,-0.59087 0.12809,-0.1757 0.24777,-0.28912 0.30683,-0.29077 0.041,-8.7e-4 0.0281,-0.0231 -0.0373,-0.063 -0.0551,-0.0337 -0.13408,-0.13207 -0.17554,-0.21863 -0.0415,-0.0866 -0.089,-0.15739 -0.10568,-0.15739 -0.0573,0 -0.0326,-0.44451 0.0285,-0.51322 0.0758,-0.0853 0.0741,-0.1245 -0.01,-0.21882 -0.098,-0.11016 -0.0922,-0.44875 0.01,-0.58288 0.23647,-0.31046 0.25703,-0.3264 0.41762,-0.32391 0.13125,0.002 0.18427,0.0324 0.31127,0.17802 0.10011,0.11484 0.1545,0.21869 0.15722,0.30025 0.007,0.21164 -0.0105,0.3859 -0.0464,0.46153 -0.0224,0.0471 -0.0125,0.12172 0.0282,0.21345 0.12733,0.28697 -0.0543,0.79367 -0.31497,0.87868 -0.11819,0.0386 -0.11874,0.0399 -0.0181,0.0437 0.13075,0.005 0.34481,0.26896 0.35303,0.43529 0.019,0.38521 -0.11092,0.68272 -0.32914,0.75355 -0.10436,0.0339 -0.11084,0.0422 -0.0355,0.0454 0.13095,0.005 0.35778,0.27413 0.36274,0.42935 0.004,0.12554 0.004,0.12552 0.0342,-0.0173 0.0399,-0.1889 0.0925,-0.25422 0.2884,-0.35779 0.20419,-0.10798 0.38611,-0.0813 0.52484,0.0769 l 0.10205,0.11642 0.10832,-0.12179 c 0.0596,-0.067 0.14497,-0.1218 0.18975,-0.1218 0.10497,0 0.10589,-0.0892 0.001,-0.11998 -0.11133,-0.0327 -0.23346,-0.32308 -0.23346,-0.55498 0,-0.2655 0.12687,-0.46787 0.34414,-0.54895 0.15729,-0.0587 0.17924,-0.0561 0.35286,0.0407 0.14254,0.0795 0.19529,0.1386 0.22929,0.25687 0.0418,0.14554 0.0378,0.1589 -0.0776,0.25456 -0.15779,0.13089 -0.21833,0.25811 -0.22005,0.46242 -10e-4,0.15013 -0.0113,0.16545 -0.10921,0.16702 l -0.10781,0.002 0.11762,0.0587 c 0.17601,0.0879 0.29404,0.26654 0.29404,0.44509 0,0.10745 -0.0178,0.15395 -0.0588,0.15395 -0.0518,0 -0.0588,0.40651 -0.0588,3.39417 v 3.39417 h -1.56824 -1.56824 v -3.30601 z m 1.4382,-3.40244 c -0.0125,-0.0352 -0.0218,-0.0247 -0.0237,0.0266 -0.002,0.0465 0.008,0.0725 0.0206,0.0579 0.013,-0.0146 0.0144,-0.0526 0.003,-0.0845 z m 1.24025,-3.26825 c -0.12845,-0.0718 -0.2477,-0.34373 -0.24753,-0.56446 1.8e-4,-0.24143 0.11346,-0.45757 0.28325,-0.54045 l 0.12827,-0.0626 -0.1201,-0.0547 c -0.26455,-0.1204 -0.37541,-0.61484 -0.20698,-0.92314 0.0476,-0.0872 0.0916,-0.13033 0.10113,-0.0992 0.009,0.0303 0.0595,0.0551 0.1116,0.0551 0.0749,0 0.0948,-0.0231 0.0948,-0.1102 0,-0.0686 0.0222,-0.11021 0.0588,-0.11021 0.0366,0 0.0588,0.0416 0.0588,0.11021 0,0.0808 0.0209,0.1102 0.0784,0.1102 0.0435,0 0.0784,-0.0294 0.0784,-0.0661 0,-0.143 0.18664,-0.014 0.25816,0.17846 0.11426,0.30746 0.0651,0.51535 -0.18279,0.77263 l -0.15189,0.15764 0.13844,0.0742 c 0.15214,0.0815 0.25173,0.28614 0.25173,0.51707 0,0.15079 -0.10575,0.43786 -0.16129,0.43786 -0.0191,0 -0.07,0.0397 -0.11315,0.0881 -0.0866,0.0974 -0.31076,0.11184 -0.45804,0.0295 z m -2.06118,-2.93956 c -0.14204,-0.15654 -0.16103,-0.20146 -0.16355,-0.38673 -0.002,-0.1153 0.0184,-0.23891 0.0444,-0.27471 0.26529,-0.3652 0.26619,-0.36592 0.4589,-0.36265 0.32531,0.005 0.47353,0.24912 0.45871,0.75378 -0.003,0.10518 -0.0427,0.19079 -0.13765,0.29754 -0.11361,0.12773 -0.1604,0.14987 -0.31673,0.14987 -0.16133,0 -0.20278,-0.0213 -0.34412,-0.1771 z"
             id="path10817" />
          <path
             style="fill:#ff5555;stroke-width:1.10215"
             d="m 116.92448,-197.38513 v -3.32806 h 0.15356 0.15355 l -0.13788,-0.15963 c -0.13683,-0.1584 -0.13778,-0.16225 -0.12416,-0.49819 0.013,-0.31966 0.0217,-0.34804 0.15646,-0.50862 0.1274,-0.15182 0.1624,-0.16973 0.32629,-0.16695 0.30631,0.005 0.45233,0.23669 0.45233,0.71705 0,0.28144 -0.0689,0.49192 -0.18622,0.56874 -0.0558,0.0365 -0.0421,0.0452 0.0734,0.0463 0.13544,8.7e-4 0.14316,-0.007 0.16688,-0.17354 0.0137,-0.0962 0.0433,-0.2204 0.0658,-0.27601 0.057,-0.14073 0.24984,-0.25439 0.43154,-0.25439 0.19255,0 0.38274,0.17757 0.42557,0.39736 l 0.0299,0.15364 0.0452,-0.18034 c 0.0593,-0.23632 0.15965,-0.33199 0.37718,-0.35955 0.30244,-0.0383 0.53093,0.20634 0.53093,0.56851 v 0.12566 h 0.2896 0.28959 l 0.0267,-0.20021 c 0.0174,-0.13019 0.0683,-0.25354 0.14573,-0.35264 0.10429,-0.13355 0.14203,-0.15243 0.3047,-0.15243 0.16795,0 0.20031,0.0178 0.339,0.18629 l 0.15331,0.1863 0.0107,3.4944 0.0107,3.49439 h -2.25527 -2.25526 z m 2.20775,-4.60425 c -0.19339,-0.13258 -0.26342,-0.50406 -0.15169,-0.80471 0.0672,-0.18093 0.12207,-0.23768 0.27003,-0.27943 l 0.11051,-0.0312 -0.15657,-0.0788 c -0.188,-0.0946 -0.24218,-0.19654 -0.26465,-0.49784 -0.0391,-0.52439 0.34699,-0.83127 0.70189,-0.55786 0.20171,0.1554 0.27985,0.48755 0.18244,0.77559 -0.0459,0.13578 -0.12106,0.21404 -0.2925,0.30456 -0.0647,0.0342 -0.0923,0.0629 -0.0612,0.0639 0.11762,0.003 0.30966,0.19895 0.35823,0.3644 l 0.0494,0.16818 0.0621,-0.19894 c 0.0341,-0.10941 0.10191,-0.2301 0.15062,-0.26819 0.12523,-0.0979 0.38744,-0.0928 0.50997,0.0101 0.13114,0.11007 0.21654,0.3856 0.18691,0.60301 -0.0488,0.35778 -0.19347,0.51332 -0.47756,0.51332 -0.18862,0 -0.40389,-0.23467 -0.41044,-0.44742 -0.003,-0.0869 -0.0116,-0.1114 -0.0218,-0.0595 -0.0397,0.20314 -0.10019,0.31419 -0.22192,0.40775 -0.15884,0.12209 -0.35746,0.12707 -0.52364,0.0131 z m -1.8808,-0.57229 c -0.0682,-0.0467 -0.1355,-0.12599 -0.14966,-0.17616 -0.0141,-0.0501 -0.0422,-0.0912 -0.0623,-0.0912 -0.0201,0 -0.0366,-0.10001 -0.0366,-0.22225 0,-0.1613 0.0215,-0.24818 0.0784,-0.31686 0.0431,-0.052 0.0784,-0.11853 0.0784,-0.14773 0,-0.0292 0.0263,-0.0644 0.0584,-0.0783 0.0481,-0.0208 0.0429,-0.0442 -0.0294,-0.13276 -0.0483,-0.0592 -0.10986,-0.13837 -0.13682,-0.17603 -0.0542,-0.0757 -0.0682,-0.51297 -0.0164,-0.51297 0.0179,0 0.055,-0.0471 0.0824,-0.10469 0.0531,-0.1116 0.0177,-0.23737 -0.1063,-0.37671 -0.0962,-0.10816 -0.0391,-0.50492 0.0923,-0.64191 0.10597,-0.11041 0.10623,-0.11214 0.0323,-0.21031 -0.041,-0.0545 -0.0884,-0.11051 -0.10531,-0.12459 -0.017,-0.0141 -0.0413,-0.0984 -0.0542,-0.18734 -0.0189,-0.13087 -0.0112,-0.16174 0.0406,-0.16174 0.0421,0 0.064,-0.0377 0.064,-0.11019 0,-0.0607 -0.0221,-0.11051 -0.049,-0.11088 -0.0303,-3.1e-4 -0.0341,-0.013 -0.01,-0.0331 0.0216,-0.0178 0.0623,-0.0786 0.0905,-0.13502 0.053,-0.1061 0.0427,-0.13764 -0.10026,-0.30809 -0.0269,-0.0321 -0.049,-0.15607 -0.049,-0.27541 0,-0.19757 0.0156,-0.23479 0.17416,-0.41563 0.14149,-0.16137 0.20025,-0.19861 0.31335,-0.19861 0.35537,0 0.58262,0.57674 0.37679,0.95628 -0.0705,0.12993 -0.0717,0.1512 -0.0165,0.27577 0.0958,0.21592 0.0905,0.62954 -0.0101,0.78286 -0.0829,0.12636 -0.083,0.12848 -0.008,0.24382 0.11806,0.18222 0.13818,0.52182 0.0431,0.72698 -0.0767,0.16546 -0.0769,0.17247 -0.006,0.27027 0.15598,0.21658 0.14298,0.62257 -0.026,0.81259 -0.0613,0.0689 -0.0831,0.12224 -0.0573,0.14017 0.0229,0.0159 0.0767,0.10614 0.1195,0.20051 0.24825,0.54711 -0.18254,1.13535 -0.61456,0.83916 z m 0.10432,-3.77173 c 0,-0.0686 -0.0222,-0.1102 -0.0588,-0.1102 -0.0366,0 -0.0588,0.0416 -0.0588,0.1102 0,0.0686 0.0222,0.1102 0.0588,0.1102 0.0366,0 0.0588,-0.0416 0.0588,-0.1102 z m 0.35286,0 c 0,-0.0882 -0.0196,-0.1102 -0.098,-0.1102 -0.0784,0 -0.098,0.022 -0.098,0.1102 0,0.0882 0.0196,0.1102 0.098,0.1102 0.0784,0 0.098,-0.022 0.098,-0.1102 z m 1.49101,1.4203 c -0.2222,-0.12641 -0.34808,-0.54657 -0.23495,-0.78422 0.0281,-0.059 0.0281,-0.138 -3e-5,-0.25539 -0.0515,-0.21508 0.01,-0.61135 0.11257,-0.72682 0.041,-0.0461 0.1528,-0.0924 0.254,-0.10525 0.14711,-0.0186 0.20627,-0.003 0.31777,0.082 0.13694,0.10484 0.15311,0.14486 0.13839,0.34231 -0.004,0.0579 0.0152,0.12123 0.0435,0.14087 0.0409,0.0284 0.0423,0.074 0.007,0.22398 -0.0282,0.11855 -0.0313,0.21632 -0.009,0.26398 0.0198,0.0417 0.036,0.17516 0.036,0.29672 0,0.16896 -0.0208,0.24557 -0.0882,0.32523 -0.21138,0.24966 -0.38178,0.30771 -0.57711,0.19659 z m 0.11643,-1.4203 c 0,-0.0882 -0.0196,-0.1102 -0.098,-0.1102 -0.0784,0 -0.098,0.022 -0.098,0.1102 0,0.0882 0.0196,0.1102 0.098,0.1102 0.0784,0 0.098,-0.022 0.098,-0.1102 z m 0.27445,0 c 0,-0.0808 -0.0209,-0.1102 -0.0784,-0.1102 -0.0575,0 -0.0784,0.0294 -0.0784,0.1102 0,0.0808 0.0209,0.1102 0.0784,0.1102 0.0575,0 0.0784,-0.0294 0.0784,-0.1102 z m -3.01578,-0.003 c 0.002,-0.0513 0.0112,-0.0618 0.0237,-0.0266 0.0113,0.0318 0.01,0.0699 -0.003,0.0845 -0.013,0.0146 -0.0223,-0.0114 -0.0206,-0.0579 z m 0.54121,-2.2665 c -0.13448,-0.15579 -0.15224,-0.20139 -0.15224,-0.39075 0,-0.17462 0.0215,-0.24205 0.11614,-0.36361 0.0639,-0.0821 0.0992,-0.15585 0.0784,-0.16393 -0.0208,-0.008 -0.0377,-0.0419 -0.0377,-0.0749 0,-0.0332 -0.0292,-0.0787 -0.065,-0.10115 -0.0439,-0.0276 -0.0707,-0.11843 -0.0826,-0.27973 -0.0169,-0.22862 -0.0108,-0.24723 0.14047,-0.43516 0.14497,-0.18004 0.17295,-0.19598 0.33748,-0.1921 0.38287,0.009 0.57749,0.49759 0.37349,0.93763 l -0.0803,0.17316 0.0801,0.14778 c 0.14556,0.26842 0.0846,0.68601 -0.12411,0.85038 -0.0481,0.0378 -0.16488,0.0688 -0.25964,0.0688 -0.14952,0 -0.19242,-0.0233 -0.32453,-0.17637 z m 0.18101,-2.44282 c -0.202,-0.0978 -0.33325,-0.31974 -0.33325,-0.56351 0,-0.15779 0.0201,-0.23173 0.0784,-0.28782 0.0431,-0.0415 0.0784,-0.10032 0.0784,-0.13067 0,-0.08 0.2101,-0.18986 0.3607,-0.18872 0.23683,0.002 0.42354,0.27746 0.42327,0.62497 -2.2e-4,0.40883 -0.31202,0.68884 -0.60755,0.54575 z m -0.91515,-1.30394 c 0,-0.0606 0.009,-0.0854 0.0198,-0.0551 0.0109,0.0303 0.0109,0.0799 0,0.1102 -0.0109,0.0303 -0.0198,0.005 -0.0198,-0.0551 z"
             id="path10815"
             sodipodi:nodetypes="ccccssssssssssscssscccssssccccccssscssssssscssssssssssssssssssssssssssscssssssssssssssssssssssssssssssssssssssssssssssssscssccsssssssssscssssssssscsssss" />
          <path
             style="fill:#439f42;stroke-width:1.10215"
             d="m 109.12247,-197.36308 v -3.30601 l 0.28425,-8e-5 0.28424,-9e-5 0.005,-0.23548 c 0.006,-0.2699 0.0867,-0.43953 0.24852,-0.52008 l 0.10956,-0.0546 -0.11841,-0.0714 c -0.15986,-0.0964 -0.27909,-0.43141 -0.24182,-0.67943 0.0347,-0.23112 0.12196,-0.37679 0.26656,-0.44515 0.10645,-0.0503 0.10946,-0.0574 0.0357,-0.0836 -0.0443,-0.0157 -0.12829,-0.10631 -0.18674,-0.20115 -0.0819,-0.13292 -0.10594,-0.2231 -0.10477,-0.39351 0.001,-0.12159 0.02,-0.25978 0.0425,-0.30709 0.0302,-0.0635 0.0248,-0.1294 -0.0208,-0.25206 -0.0899,-0.24184 -0.0452,-0.49965 0.12081,-0.69757 0.11387,-0.13576 0.15672,-0.15775 0.30196,-0.15502 0.1436,0.003 0.18641,0.0264 0.28236,0.15611 0.13589,0.18374 0.17721,0.37464 0.13251,0.61211 -0.0428,0.22709 -0.0427,0.22888 0.01,0.46284 0.0726,0.32422 -0.0688,0.6792 -0.31409,0.78833 -0.084,0.0373 -0.0868,0.0442 -0.0196,0.0478 0.29403,0.0157 0.44824,0.5973 0.2527,0.95302 -0.0484,0.0881 -0.14275,0.18698 -0.20959,0.21969 -0.0992,0.0486 -0.10604,0.0598 -0.0374,0.0612 0.11245,0.003 0.32665,0.28263 0.33088,0.43304 l 0.004,0.11969 0.0308,-0.11441 c 0.0806,-0.29912 0.36609,-0.50648 0.59815,-0.43445 0.16517,0.0513 0.25587,0.15691 0.32684,0.38064 0.0447,0.14085 0.0539,0.15029 0.0564,0.058 0.005,-0.1722 0.0935,-0.31264 0.24786,-0.39292 l 0.14166,-0.0736 -0.12874,-0.078 c -0.16865,-0.10212 -0.27352,-0.30871 -0.27352,-0.53884 0,-0.26386 0.0799,-0.44992 0.22387,-0.52144 0.22494,-0.11172 0.26402,-0.1143 0.43136,-0.0286 0.16105,0.0825 0.25859,0.22863 0.26044,0.3902 4.4e-4,0.0412 0.033,-0.004 0.0722,-0.10125 0.082,-0.20276 0.15153,-0.2775 0.3067,-0.32988 0.0824,-0.0278 0.0905,-0.0386 0.0319,-0.0425 -0.11217,-0.008 -0.19372,-0.089 -0.28909,-0.28904 -0.17037,-0.35739 -0.0575,-0.78054 0.23752,-0.88988 0.18062,-0.0669 0.30337,-0.0279 0.47938,0.15274 0.12771,0.13103 0.14067,0.16594 0.14067,0.37884 0,0.18657 -0.02,0.26071 -0.098,0.3626 -0.0539,0.0705 -0.098,0.1439 -0.098,0.16326 -3e-5,0.0193 -0.0574,0.0632 -0.12747,0.0974 -0.0926,0.0453 -0.10602,0.0628 -0.049,0.0644 0.0431,8.7e-4 0.14457,0.0727 0.22544,0.15878 0.13431,0.14312 0.14702,0.17712 0.14702,0.39319 0,0.13909 -0.0217,0.26088 -0.0526,0.29567 -0.0289,0.0325 -0.0744,0.105 -0.1011,0.16102 -0.0266,0.056 -0.10443,0.12922 -0.17282,0.16267 -0.0918,0.0449 -0.1038,0.0613 -0.0459,0.0629 0.0431,8.7e-4 0.14457,0.0726 0.22543,0.15878 0.13478,0.14363 0.14702,0.17663 0.14702,0.39634 v 0.23966 h 0.15683 0.15682 v 3.30602 3.30601 h -2.33276 -1.64804 v 0 l -0.68472,-0.75575 v -2.55026 z m 1.47741,-3.40243 c -0.0125,-0.0351 -0.0218,-0.0247 -0.0237,0.0266 -0.002,0.0465 0.008,0.0725 0.0206,0.0579 0.013,-0.0146 0.0144,-0.0526 0.003,-0.0845 z m 0.98015,0 c -0.0125,-0.0351 -0.0218,-0.0247 -0.0237,0.0266 -0.002,0.0465 0.008,0.0725 0.0206,0.0579 0.013,-0.0146 0.0144,-0.0526 0.003,-0.0845 z m 0.99258,0.077 c 0,-0.0107 -0.0177,-0.0317 -0.0392,-0.0466 -0.0216,-0.015 -0.0392,-0.006 -0.0392,0.0194 0,0.0257 0.0177,0.0466 0.0392,0.0466 0.0216,0 0.0392,-0.009 0.0392,-0.0194 z m 0,-0.42735 c 0,-0.11965 0.20698,-0.34581 0.32044,-0.35013 0.0545,-0.002 0.0675,-0.0123 0.0324,-0.0252 -0.17103,-0.0633 -0.24826,-0.14048 -0.3214,-0.32098 l -0.0808,-0.19934 -0.0661,0.19019 c -0.0509,0.1464 -0.10048,0.20723 -0.21534,0.2642 l -0.1492,0.074 0.14546,0.0641 c 0.14192,0.0626 0.25612,0.23012 0.25612,0.37566 0,0.039 0.0177,0.0587 0.0392,0.0437 0.0216,-0.015 0.0392,-0.0673 0.0392,-0.1162 z m 8.78216,-0.47889 c -0.0353,-0.0257 -0.0402,-0.043 -0.0121,-0.0434 0.0257,-3.1e-4 0.0576,0.0191 0.0709,0.0434 0.0301,0.0547 0.0165,0.0547 -0.0588,0 z m -9.60702,-2.55319 c -0.10086,-0.11228 -0.15743,-0.21657 -0.16139,-0.29754 -0.0191,-0.38916 0.0513,-0.57481 0.25795,-0.6803 0.0879,-0.0449 0.13707,-0.0821 0.10927,-0.0826 -0.0965,-0.002 -0.36085,-0.34111 -0.36722,-0.47137 -0.0155,-0.31613 0.0492,-0.56316 0.16572,-0.63328 0.0957,-0.0576 0.11482,-0.0536 0.11482,0.0238 0,0.0367 0.0349,0.0661 0.0784,0.0661 0.0575,0 0.0784,-0.0294 0.0784,-0.1102 0,-0.0686 0.0222,-0.1102 0.0588,-0.1102 0.0366,0 0.0588,0.0416 0.0588,0.1102 0,0.0872 0.0198,0.1102 0.0948,0.1102 0.0521,0 0.10143,-0.0225 0.1096,-0.0501 0.0341,-0.11526 0.15857,0.20763 0.16322,0.42364 0.006,0.26737 -0.11462,0.50572 -0.30737,0.60866 l -0.11901,0.0635 0.12689,0.0315 c 0.28729,0.0713 0.40495,0.59285 0.20708,0.91796 -0.18915,0.3108 -0.43499,0.34021 -0.66875,0.08 z m 1.1189,-0.34357 c -0.21427,-0.0583 -0.36146,-0.3967 -0.31713,-0.72913 0.0601,-0.45072 0.45871,-0.62044 0.75075,-0.31968 0.13382,0.13781 0.1511,0.18037 0.1655,0.40774 0.0134,0.2108 0.002,0.27182 -0.0661,0.35978 -0.0452,0.0582 -0.0822,0.11845 -0.0822,0.13376 0,0.0153 -0.0512,0.0619 -0.11386,0.10345 -0.11321,0.0752 -0.18709,0.0848 -0.33701,0.044 z m 0.098,-1.84185 c 0,-0.0882 -0.0196,-0.11021 -0.098,-0.11021 -0.061,0 -0.098,0.025 -0.098,0.0661 0,0.0997 -0.0616,0.0795 -0.13342,-0.0438 -0.0933,-0.16006 -0.11666,-0.4555 -0.0522,-0.65959 0.11293,-0.3575 0.44851,-0.46273 0.70617,-0.22143 0.15483,0.14499 0.20689,0.32218 0.17448,0.59385 -0.0185,0.15491 -0.18536,0.44047 -0.18536,0.31719 0,-0.0288 -0.0353,-0.0524 -0.0784,-0.0524 -0.0575,0 -0.0784,0.0294 -0.0784,0.11021 0,0.0808 -0.0209,0.11019 -0.0784,0.11019 -0.0575,0 -0.0784,-0.0294 -0.0784,-0.11019 z m 1.88499,-0.003 c 0.002,-0.0513 0.0112,-0.0618 0.0237,-0.0266 0.0113,0.0319 0.01,0.0699 -0.003,0.0845 -0.013,0.0146 -0.0223,-0.0114 -0.0206,-0.0579 z m -4.99346,-0.5645 c -0.18765,-0.19553 -0.22066,-0.5496 -0.0806,-0.86515 0.0749,-0.16874 0.16221,-0.21971 0.37646,-0.21971 0.12861,0 0.1925,0.0251 0.25252,0.0992 0.14978,0.1849 0.18277,0.30768 0.1729,0.64358 -0.003,0.10517 -0.0427,0.19079 -0.13764,0.29754 -0.1117,0.12557 -0.16161,0.14987 -0.30793,0.14987 -0.12975,0 -0.20058,-0.0271 -0.27567,-0.1053 z"
             id="path10811"
             sodipodi:nodetypes="ccccsscssssssssssssssssssscssssscsssssssssssssssssssssssscccccccccccssssssssssssssssssscsscssssssssssssssssssssssscsssssssssssssssssssssssssssssssssssssssss" />
        </g>
      </g>
    </g>
    <g
       id="g5929"
       style="stroke-width:2.77384233"
       transform="matrix(0.04567414,-0.08042245,0.08993589,0.04084272,-385.29566,-29.104095)" />
    <g
       id="g5931"
       style="stroke-width:2.77384233"
       transform="matrix(0.04567414,-0.08042245,0.08993589,0.04084272,-385.29566,-29.104095)" />
    <g
       id="g5933"
       style="stroke-width:2.77384233"
       transform="matrix(0.04567414,-0.08042245,0.08993589,0.04084272,-385.29566,-29.104095)" />
    <g
       id="g5935"
       style="stroke-width:2.77384233"
       transform="matrix(0.04567414,-0.08042245,0.08993589,0.04084272,-385.29566,-29.104095)" />
    <g
       id="g5937"
       style="stroke-width:2.77384233"
       transform="matrix(0.04567414,-0.08042245,0.08993589,0.04084272,-385.29566,-29.104095)" />
    <g
       id="g5939"
       style="stroke-width:2.77384233"
       transform="matrix(0.04567414,-0.08042245,0.08993589,0.04084272,-385.29566,-29.104095)" />
    <g
       id="g5941"
       style="stroke-width:2.77384233"
       transform="matrix(0.04567414,-0.08042245,0.08993589,0.04084272,-385.29566,-29.104095)" />
    <g
       id="g5943"
       style="stroke-width:2.77384233"
       transform="matrix(0.04567414,-0.08042245,0.08993589,0.04084272,-385.29566,-29.104095)" />
    <g
       id="g5945"
       style="stroke-width:2.77384233"
       transform="matrix(0.04567414,-0.08042245,0.08993589,0.04084272,-385.29566,-29.104095)" />
    <g
       id="g5947"
       style="stroke-width:2.77384233"
       transform="matrix(0.04567414,-0.08042245,0.08993589,0.04084272,-385.29566,-29.104095)" />
    <g
       id="g5949"
       style="stroke-width:2.77384233"
       transform="matrix(0.04567414,-0.08042245,0.08993589,0.04084272,-385.29566,-29.104095)" />
    <g
       id="g5951"
       style="stroke-width:2.77384233"
       transform="matrix(0.04567414,-0.08042245,0.08993589,0.04084272,-385.29566,-29.104095)" />
    <g
       id="g5953"
       style="stroke-width:2.77384233"
       transform="matrix(0.04567414,-0.08042245,0.08993589,0.04084272,-385.29566,-29.104095)" />
    <g
       id="g5955"
       style="stroke-width:2.77384233"
       transform="matrix(0.04567414,-0.08042245,0.08993589,0.04084272,-385.29566,-29.104095)" />
    <g
       id="g5957"
       style="stroke-width:2.77384233"
       transform="matrix(0.04567414,-0.08042245,0.08993589,0.04084272,-385.29566,-29.104095)" />
    <circle
       cy="-43.966957"
       cx="-217.64529"
       id="circle7053"
       style="opacity:1;fill:#374150;fill-opacity:1;stroke:none;stroke-width:0.96499991;stroke-miterlimit:4;stroke-dasharray:none;stroke-opacity:1"
       r="0" />
  </g>
  <style
     id="style7196"
     type="text/css">
	.st0{fill:#77B3D4;}
	.st1{opacity:0.2;}
	.st2{fill:#231F20;}
	.st3{fill:#FFFFFF;}
</style>
</svg>
